# xmcd CD database file
#
# Track frame offsets:
#	150
#	16897
#	31650
#	49497
#	63547
#	82305
#	98862
#	115072
#	134105
#	157360
#	179677
#	195747
#	221262
#	236112
#	254870
#	268375
#
# Disc length: 3851 seconds
#
# Revision: 6
# Processed by: cddbd v1.5.1PL0 Copyright (c) Steve Scherf et al.
# Submitted via: CDex 1.51
#
DISCID=030f0910
DTITLE=Faith Hill - There You'll Be
DYEAR=2001
DGENRE=Country
TTITLE0=There You'll Be
TTITLE1=This Kiss
TTITLE2=Breathe (Tin Tin Out Radio Mix)
TTITLE3=The Way You Love Me
TTITLE4=Let Me Let Go
TTITLE5=Piece Of My Heart
TTITLE6=If My Heart Had Wings
TTITLE7=There Will Come A Day
TTITLE8=Love Will Always Win
TTITLE9=My Wild Frontier
TTITLE10=You Give Me Love
TTITLE11=Somewhere Down The Road
TTITLE12=Over The Rainbow
TTITLE13=Breathe
TTITLE14=The Way You Love Me (Love To Infinity Remix)
TTITLE15=If I Should Fall Behind
EXTD=YEAR: 2001
EXTT0=
EXTT1=
EXTT2=
EXTT3=
EXTT4=
EXTT5=
EXTT6=
EXTT7=
EXTT8=
EXTT9=
EXTT10=
EXTT11=
EXTT12=
EXTT13=
EXTT14=
EXTT15=
PLAYORDER=
